<?xml version="1.0" encoding="UTF-8"?>
<svg width="512px" height="512px" viewBox="0 0 512 512" version="1.1" xmlns="http://www.w3.org/2000/svg" xmlns:xlink="http://www.w3.org/1999/xlink">
    <title>Stopwatch</title>
    <g id="Stopwatch" stroke="none" stroke-width="1" fill="none" fill-rule="evenodd">
        <g id="layers" transform="translate(38.000000, 5.509645)">
            <path d="M218,491.490355 C338.398075,491.490355 436,393.88843 436,273.490355 C436,229.871194 423.18927,189.244141 401.12501,155.166394 L436,120.489618 L380.039729,63.6690901 L347.261427,97.9292344 C321.362732,78.8287605 291.085963,65.3219491 258.214164,59.1918438 L258.214164,0 L179.106274,0 L179.106274,58.9498241 C147.057122,64.7216749 117.441825,77.4988213 91.9025057,95.6391421 L57.0892047,63.6690901 L0,120.489618 L35.5291425,154.162125 C13.0641366,188.444731 0,229.441897 0,273.490355 C0,393.88843 97.6019245,491.490355 218,491.490355 Z" id="Oval" fill="#D8D8D8"></path>
            <circle id="Oval" fill="#FAF8F8" cx="218" cy="274.490355" r="200"></circle>
            <rect id="Rectangle" stroke="#979797" fill="#4D4C4C" transform="translate(271.181981, 222.308374) rotate(-45.000000) translate(-271.181981, -222.308374) " x="190.181981" y="216.808374" width="162" height="11"></rect>
        </g>
    </g>
</svg>